<svg xmlns="http://www.w3.org/2000/svg" width="1200" height="720" viewBox="0 0 1200 720" role="img" aria-labelledby="title desc">
  <title id="title">LogLoom offline report preview</title>
  <desc id="desc">A private incident dashboard showing 19 events, 6 errors, 2 anomalies, 3 redactions, and a candidate failure precursor from the built-in demo.</desc>
  <defs><linearGradient id="bg" x2="1" y2="1"><stop stop-color="#070b14"/><stop offset="1" stop-color="#121d31"/></linearGradient><filter id="shadow"><feDropShadow dx="0" dy="9" stdDeviation="13" flood-opacity=".35"/></filter></defs>
  <rect width="1200" height="720" rx="20" fill="url(#bg)"/>
  <g font-family="Inter,Segoe UI,sans-serif"><rect x="42" y="35" width="44" height="44" rx="13" fill="#55d7d0"/><text x="64" y="65" fill="#071018" text-anchor="middle" font-size="23" font-weight="900">L</text><text x="101" y="51" fill="#55d7d0" font-size="11" font-weight="750" letter-spacing="2">LOCAL LOG INTELLIGENCE</text><text x="101" y="73" fill="#edf3ff" font-size="19" font-weight="720">LogLoom investigation</text><rect x="994" y="42" width="164" height="32" rx="16" fill="#5ee6a810" stroke="#5ee6a855"/><text x="1076" y="63" fill="#5ee6a8" text-anchor="middle" font-size="11">● PRIVATE · OFFLINE</text></g>
  <g transform="translate(42 104)" font-family="Inter,Segoe UI,sans-serif" filter="url(#shadow)">
    <g><rect width="174" height="92" rx="14" fill="#111d31" stroke="#26334a"/><text x="16" y="30" fill="#91a0bb" font-size="10" letter-spacing="1">EVENTS</text><text x="16" y="64" fill="#55d7d0" font-size="29" font-weight="750">19</text><text x="16" y="82" fill="#71809a" font-size="10">19 lines read</text></g>
    <g transform="translate(187)"><rect width="174" height="92" rx="14" fill="#111d31" stroke="#26334a"/><text x="16" y="30" fill="#91a0bb" font-size="10" letter-spacing="1">ERRORS</text><text x="16" y="64" fill="#ff6b7a" font-size="29" font-weight="750">6</text><text x="16" y="82" fill="#71809a" font-size="10">31.58% of events</text></g>
    <g transform="translate(374)"><rect width="174" height="92" rx="14" fill="#111d31" stroke="#26334a"/><text x="16" y="30" fill="#91a0bb" font-size="10" letter-spacing="1">ANOMALIES</text><text x="16" y="64" fill="#ffca80" font-size="29" font-weight="750">2</text><text x="16" y="82" fill="#71809a" font-size="10">robust bucket signals</text></g>
    <g transform="translate(561)"><rect width="174" height="92" rx="14" fill="#111d31" stroke="#26334a"/><text x="16" y="30" fill="#91a0bb" font-size="10" letter-spacing="1">TEMPLATES</text><text x="16" y="64" fill="#edf3ff" font-size="29" font-weight="750">5</text><text x="16" y="82" fill="#71809a" font-size="10">streaming clusters</text></g>
    <g transform="translate(748)"><rect width="174" height="92" rx="14" fill="#111d31" stroke="#26334a"/><text x="16" y="30" fill="#91a0bb" font-size="10" letter-spacing="1">LATENCY P95</text><text x="16" y="64" fill="#edf3ff" font-size="29" font-weight="750">2.4s</text><text x="16" y="82" fill="#71809a" font-size="10">19 observations</text></g>
    <g transform="translate(935)"><rect width="181" height="92" rx="14" fill="#111d31" stroke="#26334a"/><text x="16" y="30" fill="#91a0bb" font-size="10" letter-spacing="1">REDACTIONS</text><text x="16" y="64" fill="#5ee6a8" font-size="29" font-weight="750">3</text><text x="16" y="82" fill="#71809a" font-size="10">safe by default</text></g>
  </g>
  <g transform="translate(42 216)" filter="url(#shadow)" font-family="Inter,Segoe UI,sans-serif"><rect width="720" height="250" rx="15" fill="#0e1728" stroke="#26334a"/><text x="20" y="30" fill="#edf3ff" font-size="13" font-weight="700">Event &amp; error trend</text><text x="20" y="48" fill="#71809a" font-size="10">5 populated one-minute buckets</text><g transform="translate(48 68)"><path d="M0 150H640M0 100H640M0 50H640" stroke="#26334a"/><path d="M0 131L160 126L320 130L480 122L640 23L640 150L0 150Z" fill="#55d7d014"/><path d="M0 131L160 126L320 130L480 122L640 23" fill="none" stroke="#55d7d0" stroke-width="3"/><path d="M0 150L160 150L320 150L480 150L640 48" fill="none" stroke="#ff6b7a" stroke-width="3"/><circle cx="640" cy="23" r="6" fill="#55d7d0"/><circle cx="640" cy="48" r="6" fill="#ff6b7a"/><text x="0" y="171" fill="#71809a" font-size="9">08:00</text><text x="606" y="171" fill="#71809a" font-size="9">08:04</text></g></g>
  <g transform="translate(779 216)" filter="url(#shadow)" font-family="Inter,Segoe UI,sans-serif"><rect width="379" height="250" rx="15" fill="#0e1728" stroke="#26334a"/><text x="20" y="30" fill="#edf3ff" font-size="13" font-weight="700">Candidate failure precursor</text><text x="20" y="48" fill="#71809a" font-size="9">TEMPORAL ASSOCIATION · NOT CAUSALITY</text><g transform="translate(19 65)"><rect width="341" height="55" rx="10" fill="#55d7d00d" stroke="#55d7d055"/><text x="13" y="20" fill="#55d7d0" font-size="9" font-weight="750">SOURCE · PAYMENTS</text><text x="13" y="40" fill="#eaf0fb" font-size="10">processor connection &lt;num&gt; degraded</text><path d="M170 58V76" stroke="#91a0bb" stroke-width="2"/><path d="M165 71L170 77L175 71" fill="none" stroke="#91a0bb" stroke-width="2"/><rect y="80" width="341" height="55" rx="10" fill="#ff6b7a0d" stroke="#ff6b7a55"/><text x="13" y="100" fill="#ff6b7a" font-size="9" font-weight="750">NEAREST FAILURE</text><text x="13" y="120" fill="#eaf0fb" font-size="10">payment attempt &lt;num&gt; failed; retry scheduled</text><text x="0" y="158" fill="#5ee6a8" font-size="11" font-weight="700">4/4 support · 1.25× lift · median 1.9m</text></g></g>
  <g transform="translate(42 484)" filter="url(#shadow)" font-family="Inter,Segoe UI,sans-serif"><rect width="1116" height="191" rx="15" fill="#0e1728" stroke="#26334a"/><text x="20" y="31" fill="#edf3ff" font-size="13" font-weight="700">Message templates</text><text x="20" y="49" fill="#71809a" font-size="10">Searchable redacted clusters</text><path d="M20 70H1096M20 113H1096M20 156H1096" stroke="#26334a"/><g font-family="ui-monospace,SFMono-Regular,monospace" font-size="11"><text x="20" y="96" fill="#d8e0ed">payment attempt &lt;num&gt; failed; retry scheduled</text><text x="780" y="96" fill="#ff6b7a">6 events · 6 errors</text><text x="20" y="139" fill="#d8e0ed">processor connection &lt;num&gt; degraded; fallback queued</text><text x="780" y="139" fill="#91a0bb">4 events · 0 errors</text><text x="20" y="182" fill="#d8e0ed">checkout request &lt;num&gt; completed for &lt;*&gt;</text><text x="780" y="182" fill="#91a0bb">4 events · 0 errors</text></g></g>
</svg>
